<svg id="Layer_1" data-name="Layer 1" xmlns="http://www.w3.org/2000/svg" viewBox="0 0 1920 1080"><defs><style>.cls-1{fill:#ef7c52;}.cls-2{fill:#fff;}</style></defs><path class="cls-1" d="M498.58,679.17c-40,0-78.1-15.67-107.19-44.13l-.08-.07c-28.46-29.09-44.13-67.17-44.13-107.2v-5h62.46v5a88.95,88.95,0,0,0,177.89,0,87.44,87.44,0,0,0-26-62.56,88.75,88.75,0,0,0-62.9-25.77h-5V377h5c40.68,0,78.55,15.46,106.64,43.55h0c28.87,28.87,44.77,67,44.77,107.24S634.09,606.14,605.22,635A149.78,149.78,0,0,1,498.58,679.17Z"/><path class="cls-2" d="M1010.17,528.07c0,39-15.25,75.65-43.32,103.71-27.45,27.45-64.05,42.09-103.09,42.09-34.77,0-67.71-16.47-93.94-38.43V795.5H717.36V388.38h52.46v32.33c26.23-22,59.17-38.43,93.94-38.43,39,0,75.64,14.64,103.09,42.09C994.92,452.43,1010.17,489,1010.17,528.07Zm-52.46,0c0-51.85-42.1-94.55-94-94.55s-93.94,42.7-93.94,94.55,42.09,94.56,93.94,94.56S957.71,579.93,957.71,528.07Z"/><path class="cls-2" d="M1515,388.38h52.46V667.77H1515V635.44c-26.23,22-59.17,38.43-93.94,38.43a146.76,146.76,0,0,1-103.7-42.09c-27.45-28.06-42.7-64.66-42.7-103.71s15.25-75.64,42.7-103.7A146.76,146.76,0,0,1,1421,382.28c34.77,0,67.71,16.47,93.94,38.43Zm0,139.69c0-51.85-42.09-94.55-93.94-94.55s-93.94,42.7-93.94,94.55,42.09,94.56,93.94,94.56S1515,579.93,1515,528.07Z"/><path class="cls-2" d="M1080.67,280.41h61.73v130.5h61.74v62.51H1142.4v82.05s0,54.51,61.74,54.7v57.05s-51.58,7.81-94.75-35.56c-29-29.07-28.72-65.64-28.72-65.64Z"/><rect class="cls-2" x="348.09" y="738.86" width="303.54" height="60.73"/><rect class="cls-2" x="835.45" y="738.86" width="737.37" height="60.73"/></svg>